<?xml version="1.0" encoding="UTF-8" standalone="no"?>
<!DOCTYPE svg PUBLIC "-//W3C//DTD SVG 1.1//EN" "http://www.w3.org/Graphics/SVG/1.1/DTD/svg11.dtd">
<svg xmlns="http://www.w3.org/2000/svg" xmlns:xlink="http://www.w3.org/1999/xlink" version="1.1" width="322pt" height="199.667pt" viewBox="0 0 322 199.667">
<g enable-background="new">
<g id="Layer-1" data-name="Layer 1">
<clipPath id="cp0">
<path transform="matrix(1,0,0,-1,0,199.667)" d="M 0 199.667 L 322 199.667 L 322 0 L 0 0 Z "/>
</clipPath>
<g clip-path="url(#cp0)">
<path transform="matrix(1,0,0,-1,56.4584,108.52811)" d="M 0 0 C 17.634 12.325 50.633 30.385 102.733 40.438 C 173.211 54.037 240.929 29.149 240.929 29.149 C 230.004 6.69 223.725 -.727 223.725 -.727 C 223.725 -.727 211.467 -18.312 179.08 -16.032 C 146.692 -13.751 134.005 -8.585 120.552 -4.813 C 111.987 -2.41 65.901 5.654 63.142 5.601 C 61.588 5.571 60.387 9.353 58.454 9.226 C 54.357 8.957 25.414 -.22 15.854 -4.757 C 9.985 -7.543 4.197 -10.819 -1.263 -14.566 C -4.872 -17.043 -8.256 -19.899 -11.42 -23 C -16.255 -27.74 -21.601 -32.625 -25.417 -38.035 C -26.132 -39.048 -30.671 -44.253 -30.671 -44.253 L -30.671 -44.368 C -30.837 -43.578 -28.338 -35.768 -28.146 -35.003 C -27.542 -33.287 -26.312 -29.508 -23.49 -25.128 C -21.364 -21.829 -18.865 -18.221 -16.331 -15.01 C -13.36 -11.247 -4.047 -2.829 0 0 " fill="#521b1b" fill-rule="evenodd"/>
<path transform="matrix(1,0,0,-1,87.4427,108.74271)" d="M 0 0 L 0 38.721 L 0 59.07 L -21.6 37.396 L -21.6 -19.799 L 0 -19.799 L 28.2 -19.799 L 28.2 0 Z " fill="#404041"/>
<path transform="matrix(1,0,0,-1,66.5513,127.833309)" d="M 0 0 L 48.383 0 L 48.383 18.382 L 20.183 18.382 L 20.183 76.446 L 0 56.193 Z M 49.8 -1.417 L -1.417 -1.417 L -1.417 56.779 L 21.6 79.876 L 21.6 19.799 L 49.8 19.799 Z " fill="#ffffff"/>
<path transform="matrix(1,0,0,-1,201.8021,49.672304)" d="M 0 0 L -27.48 0 L -58.8 -31.286 L -58.8 0 L -80.4 -21.675 L -80.4 -78.87 L -58.8 -78.87 L -58.8 -60.057 L -48.36 -49.71 L -19.2 -78.75 L -19.2 -51.338 L -35.16 -35.348 Z " fill="#404041"/>
<path transform="matrix(1,0,0,-1,122.1108,127.833309)" d="M 0 0 L 20.183 0 L 20.183 18.399 L 31.333 29.45 L 59.783 1.118 L 59.783 26.53 L 43.531 42.813 L 77.987 77.453 L 52.505 77.453 L 20.183 45.166 L 20.183 76.446 L 0 56.193 Z M 61.2 -2.294 L 31.331 27.452 L 21.6 17.809 L 21.6 -1.417 L -1.417 -1.417 L -1.417 56.779 L 21.6 79.876 L 21.6 48.585 L 51.918 78.87 L 81.396 78.87 L 45.532 42.814 L 61.2 27.116 Z " fill="#ffffff"/>
<path transform="matrix(1,0,0,-1,209.8411,70.07271)" d="M 0 0 L 27.96 0 L 48.36 20.4 L 0 20.4 L -21.6 -1.274 L -21.6 -58.469 L 0 -58.469 L 0 -28.949 L 28.2 -28.949 L 28.2 -9.63 L 0 -9.63 Z " fill="#404041"/>
<path transform="matrix(1,0,0,-1,188.9497,127.833309)" d="M 0 0 L 20.183 0 L 20.183 29.52 L 48.383 29.52 L 48.383 47.422 L 20.183 47.422 L 20.183 58.469 L 48.558 58.469 L 67.541 77.453 L 21.186 77.453 L 0 56.193 Z M 21.6 -1.417 L -1.417 -1.417 L -1.417 56.779 L 20.597 78.87 L 70.962 78.87 L 49.145 57.052 L 21.6 57.052 L 21.6 48.839 L 49.8 48.839 L 49.8 28.103 L 21.6 28.103 Z " fill="#ffffff"/>
<path transform="matrix(1,0,0,-1,67.09,140.2933)" d="M 0 0 L 0 6.636 L 1.269 6.636 L 1.269 1.071 L 4.072 1.071 L 4.072 0 Z " fill="#404041"/>
<path transform="matrix(1,0,0,-1,74.6147,134.87581)" d="M 0 0 L -.874 -3.087 L .863 -3.087 Z M 1.508 -5.418 L 1.142 -4.107 L -1.173 -4.107 L -1.549 -5.418 L -2.788 -5.418 L -.823 1.219 L .924 1.219 L 2.889 -5.418 Z " fill="#404041"/>
<path transform="matrix(1,0,0,-1,81.0227,134.69782)" d="M 0 0 L 0 -5.595 L -1.28 -5.595 L -1.28 0 L -3.097 0 L -3.097 1.041 L 1.818 1.041 L 1.818 0 Z " fill="#404041"/>
<path transform="matrix(1,0,0,-1,86.9228,140.2933)" d="M 0 0 L -1.655 0 L -3.681 6.636 L -2.265 6.636 L -1.142 2.64 L -.782 1.33 L -.406 2.716 L .706 6.636 L 2.036 6.636 Z " fill="#404041"/>
<path transform="matrix(1,0,0,-1,89.7201,134.67801)" d="M 0 0 L 0 1.021 L 4.194 1.021 L 4.194 0 L 2.732 0 L 2.732 -4.585 L 4.194 -4.585 L 4.194 -5.615 L 0 -5.615 L 0 -4.585 L 1.462 -4.585 L 1.462 0 Z " fill="#404041"/>
<path transform="matrix(1,0,0,-1,99.2708,138.30802)" d="M 0 0 C 0 -.312 -.049 -.596 -.147 -.853 C -.246 -1.11 -.389 -1.331 -.579 -1.513 C -.769 -1.696 -1.004 -1.837 -1.285 -1.937 C -1.566 -2.037 -1.892 -2.087 -2.265 -2.087 C -2.539 -2.087 -2.803 -2.055 -3.057 -1.99 C -3.311 -1.926 -3.532 -1.845 -3.722 -1.747 L -3.722 -.538 C -3.637 -.609 -3.538 -.675 -3.425 -.737 C -3.311 -.797 -3.191 -.851 -3.062 -.896 C -2.933 -.942 -2.801 -.978 -2.666 -1.003 C -2.53 -1.028 -2.396 -1.041 -2.265 -1.041 C -2.153 -1.041 -2.037 -1.021 -1.917 -.98 C -1.797 -.94 -1.689 -.872 -1.594 -.777 C -1.5 -.682 -1.422 -.558 -1.361 -.403 C -1.3 -.25 -1.269 -.059 -1.269 .168 L -1.269 3.62 L -3.671 3.62 L -3.671 4.651 L 0 4.651 Z " fill="#404041"/>
<path transform="matrix(1,0,0,-1,103.201,134.87581)" d="M 0 0 L -.874 -3.087 L .863 -3.087 Z M 1.508 -5.418 L 1.142 -4.107 L -1.173 -4.107 L -1.549 -5.418 L -2.788 -5.418 L -.823 1.219 L .924 1.219 L 2.889 -5.418 Z " fill="#404041"/>
<path transform="matrix(1,0,0,-1,111.2896,138.2875)" d="M 0 0 C 0 -.362 -.067 -.677 -.201 -.945 C -.334 -1.212 -.521 -1.433 -.762 -1.607 C -1.002 -1.782 -1.288 -1.911 -1.62 -1.996 C -1.952 -2.08 -2.314 -2.123 -2.707 -2.123 C -3.055 -2.123 -3.392 -2.102 -3.717 -2.062 C -4.042 -2.021 -4.363 -1.954 -4.682 -1.859 L -4.682 -.625 C -4.526 -.679 -4.363 -.73 -4.194 -.777 C -4.025 -.825 -3.855 -.866 -3.684 -.901 C -3.513 -.937 -3.343 -.965 -3.173 -.986 C -3.004 -1.005 -2.84 -1.016 -2.681 -1.016 C -2.444 -1.016 -2.243 -.995 -2.077 -.955 C -1.911 -.915 -1.775 -.858 -1.671 -.787 C -1.566 -.716 -1.49 -.632 -1.442 -.533 C -1.395 -.435 -1.371 -.327 -1.371 -.209 C -1.371 -.046 -1.418 .09 -1.511 .2 C -1.604 .311 -1.726 .407 -1.879 .492 C -2.031 .577 -2.205 .653 -2.399 .721 C -2.594 .789 -2.792 .861 -2.993 .939 C -3.195 1.017 -3.393 1.105 -3.588 1.203 C -3.782 1.301 -3.956 1.423 -4.108 1.569 C -4.26 1.714 -4.383 1.888 -4.476 2.089 C -4.569 2.291 -4.616 2.533 -4.616 2.818 C -4.616 3.079 -4.568 3.325 -4.473 3.559 C -4.379 3.793 -4.23 3.996 -4.027 4.171 C -3.823 4.345 -3.563 4.484 -3.245 4.587 C -2.927 4.69 -2.542 4.742 -2.092 4.742 C -1.96 4.742 -1.822 4.736 -1.678 4.724 C -1.535 4.712 -1.392 4.697 -1.252 4.679 C -1.111 4.66 -.976 4.638 -.845 4.613 C -.715 4.587 -.596 4.561 -.488 4.534 L -.488 3.391 C -.596 3.432 -.714 3.469 -.843 3.503 C -.972 3.537 -1.105 3.566 -1.242 3.592 C -1.379 3.618 -1.517 3.637 -1.655 3.65 C -1.794 3.664 -1.926 3.671 -2.052 3.671 C -2.272 3.671 -2.458 3.653 -2.61 3.618 C -2.762 3.582 -2.887 3.533 -2.986 3.47 C -3.084 3.407 -3.155 3.33 -3.199 3.239 C -3.243 3.147 -3.265 3.046 -3.265 2.934 C -3.265 2.796 -3.218 2.677 -3.125 2.576 C -3.032 2.477 -2.909 2.387 -2.755 2.307 C -2.601 2.228 -2.426 2.153 -2.232 2.084 C -2.037 2.015 -1.837 1.94 -1.633 1.861 C -1.428 1.781 -1.228 1.69 -1.033 1.589 C -.839 1.487 -.665 1.364 -.51 1.219 C -.356 1.073 -.233 .901 -.14 .703 C -.047 .505 0 .27 0 0 " fill="#404041"/>
<path transform="matrix(1,0,0,-1,121.4645,140.2933)" d="M 0 0 L -1.996 3.209 L -1.996 0 L -3.265 0 L -3.265 6.636 L -1.996 6.636 L -1.996 3.615 L -.01 6.636 L 1.498 6.636 L -.757 3.473 L 1.614 0 Z " fill="#404041"/>
<path transform="matrix(1,0,0,-1,126.0699,134.87581)" d="M 0 0 L -.874 -3.087 L .863 -3.087 Z M 1.508 -5.418 L 1.142 -4.107 L -1.173 -4.107 L -1.549 -5.418 L -2.788 -5.418 L -.823 1.219 L .924 1.219 L 2.889 -5.418 Z " fill="#404041"/>
<path transform="matrix(1,0,0,-1,132.7367,140.2933)" d="M 0 0 L -1.777 3.96 L -2.143 4.813 L -2.143 2.061 L -2.143 0 L -3.28 0 L -3.28 6.636 L -1.747 6.636 L .066 2.65 L .386 1.873 L .386 4.803 L .386 6.636 L 1.523 6.636 L 1.523 0 Z " fill="#404041"/>
<path transform="matrix(1,0,0,-1,138.9056,137.00821)" d="M 0 0 C 0 .785 -.105 1.371 -.315 1.757 C -.525 2.143 -.87 2.335 -1.351 2.335 C -1.591 2.335 -1.796 2.285 -1.965 2.186 C -2.134 2.086 -2.274 1.939 -2.384 1.747 C -2.494 1.553 -2.574 1.316 -2.625 1.033 C -2.676 .751 -2.701 .426 -2.701 .061 C -2.701 -.724 -2.596 -1.31 -2.384 -1.696 C -2.172 -2.082 -1.828 -2.275 -1.351 -2.275 C -1.11 -2.275 -.905 -2.225 -.734 -2.125 C -.563 -2.026 -.423 -1.879 -.315 -1.686 C -.206 -1.493 -.127 -1.255 -.076 -.972 C -.025 -.69 0 -.365 0 0 M 1.32 .061 C 1.32 -.542 1.25 -1.061 1.109 -1.498 C .969 -1.935 .776 -2.294 .531 -2.575 C .285 -2.855 -.003 -3.064 -.332 -3.199 C -.663 -3.334 -1.015 -3.402 -1.391 -3.402 C -2.265 -3.402 -2.921 -3.112 -3.361 -2.532 C -3.801 -1.951 -4.021 -1.107 -4.021 0 C -4.021 .603 -3.951 1.122 -3.811 1.558 C -3.67 1.996 -3.477 2.354 -3.232 2.635 C -2.986 2.916 -2.699 3.124 -2.369 3.259 C -2.039 3.395 -1.686 3.463 -1.31 3.463 C -.437 3.463 .22 3.173 .66 2.595 C 1.1 2.015 1.32 1.171 1.32 .061 " fill="#404041"/>
<path transform="matrix(1,0,0,-1,141.3478,140.2933)" d="M 0 0 L 0 6.636 L 3.996 6.636 L 3.996 5.58 L 1.269 5.58 L 1.269 3.93 L 3.869 3.93 L 3.869 2.899 L 1.269 2.899 L 1.269 1.056 L 3.996 1.056 L 3.996 0 Z " fill="#404041"/>
<path transform="matrix(1,0,0,-1,154.0517,134.71321)" d="M 0 0 L 0 -1.838 L 2.508 -1.838 L 2.508 -2.864 L 0 -2.864 L 0 -5.58 L -1.269 -5.58 L -1.269 1.056 L 2.651 1.056 L 2.651 0 Z " fill="#404041"/>
<path transform="matrix(1,0,0,-1,158.4997,140.2933)" d="M 0 0 L 0 6.636 L 3.996 6.636 L 3.996 5.58 L 1.269 5.58 L 1.269 3.93 L 3.869 3.93 L 3.869 2.899 L 1.269 2.899 L 1.269 1.056 L 3.996 1.056 L 3.996 0 Z " fill="#404041"/>
<path transform="matrix(1,0,0,-1,167.3901,136.97312)" d="M 0 0 C 0 .359 -.029 .679 -.086 .96 C -.144 1.241 -.241 1.479 -.379 1.673 C -.516 1.868 -.699 2.016 -.929 2.118 C -1.16 2.219 -1.446 2.27 -1.788 2.27 L -2.422 2.27 L -2.422 -2.275 L -1.874 -2.275 C -1.261 -2.275 -.796 -2.091 -.477 -1.726 C -.159 -1.361 0 -.785 0 0 M 1.34 .081 C 1.34 -.433 1.277 -.9 1.15 -1.32 C 1.023 -1.74 .825 -2.097 .556 -2.394 C .287 -2.69 -.058 -2.918 -.477 -3.079 C -.897 -3.24 -1.4 -3.32 -1.985 -3.32 L -3.671 -3.32 L -3.671 3.316 L -1.706 3.316 C -1.198 3.316 -.754 3.252 -.373 3.125 C .007 2.999 .325 2.803 .579 2.539 C .833 2.275 1.023 1.94 1.15 1.533 C 1.277 1.128 1.34 .644 1.34 .081 " fill="#404041"/>
<path transform="matrix(1,0,0,-1,169.9341,140.2933)" d="M 0 0 L 0 6.636 L 3.996 6.636 L 3.996 5.58 L 1.269 5.58 L 1.269 3.93 L 3.869 3.93 L 3.869 2.899 L 1.269 2.899 L 1.269 1.056 L 3.996 1.056 L 3.996 0 Z " fill="#404041"/>
<path transform="matrix(1,0,0,-1,178.4083,135.61171)" d="M 0 0 C 0 .324 -.103 .558 -.309 .7 C -.516 .843 -.826 .914 -1.239 .914 L -1.787 .914 L -1.787 -.96 L -1.279 -.96 C -1.086 -.96 -.911 -.94 -.754 -.899 C -.596 -.858 -.462 -.797 -.35 -.716 C -.238 -.635 -.152 -.535 -.091 -.414 C -.03 -.294 0 -.156 0 0 M .31 -4.682 L -.624 -2.549 C -.713 -2.346 -.835 -2.193 -.993 -2.09 C -1.15 -1.987 -1.335 -1.935 -1.548 -1.935 L -1.787 -1.935 L -1.787 -4.682 L -3.036 -4.682 L -3.036 1.954 L -1.102 1.954 C -.736 1.954 -.404 1.923 -.107 1.861 C .191 1.798 .445 1.694 .655 1.548 C .865 1.403 1.027 1.213 1.14 .98 C 1.253 .746 1.31 .46 1.31 .122 C 1.31 -.122 1.275 -.339 1.204 -.529 C 1.133 -.718 1.033 -.881 .904 -1.019 C .775 -1.156 .622 -1.266 .445 -1.351 C .267 -1.435 .073 -1.495 -.137 -1.528 C .026 -1.563 .175 -1.655 .31 -1.805 C .445 -1.956 .581 -2.173 .716 -2.458 L 1.777 -4.682 Z " fill="#404041"/>
<path transform="matrix(1,0,0,-1,183.2422,134.87581)" d="M 0 0 L -.874 -3.087 L .863 -3.087 Z M 1.508 -5.418 L 1.142 -4.107 L -1.173 -4.107 L -1.549 -5.418 L -2.788 -5.418 L -.823 1.219 L .924 1.219 L 2.889 -5.418 Z " fill="#404041"/>
<path transform="matrix(1,0,0,-1,191.2491,140.0348)" d="M 0 0 C -.295 -.118 -.58 -.206 -.856 -.264 C -1.132 -.321 -1.418 -.35 -1.716 -.35 C -2.194 -.35 -2.616 -.28 -2.983 -.139 C -3.35 .001 -3.66 .21 -3.912 .488 C -4.165 .765 -4.356 1.109 -4.486 1.521 C -4.616 1.933 -4.682 2.41 -4.682 2.956 C -4.682 3.514 -4.611 4.011 -4.468 4.446 C -4.326 4.881 -4.123 5.248 -3.859 5.547 C -3.595 5.847 -3.274 6.075 -2.897 6.233 C -2.519 6.39 -2.095 6.469 -1.625 6.469 C -1.473 6.469 -1.329 6.465 -1.196 6.459 C -1.062 6.452 -.931 6.439 -.802 6.421 C -.674 6.402 -.543 6.378 -.412 6.347 C -.279 6.317 -.142 6.278 0 6.23 L 0 4.991 C -.288 5.127 -.562 5.223 -.823 5.281 C -1.083 5.338 -1.32 5.367 -1.533 5.367 C -1.848 5.367 -2.117 5.311 -2.341 5.197 C -2.564 5.084 -2.748 4.925 -2.892 4.72 C -3.036 4.515 -3.142 4.271 -3.209 3.989 C -3.277 3.706 -3.311 3.396 -3.311 3.057 C -3.311 2.698 -3.276 2.377 -3.206 2.094 C -3.137 1.812 -3.03 1.572 -2.884 1.376 C -2.738 1.18 -2.552 1.03 -2.325 .927 C -2.099 .824 -1.83 .772 -1.518 .772 C -1.407 .772 -1.286 .783 -1.155 .805 C -1.025 .827 -.893 .856 -.759 .891 C -.625 .927 -.494 .969 -.363 1.019 C -.233 1.068 -.112 1.117 0 1.168 Z " fill="#404041"/>
<path transform="matrix(1,0,0,-1,192.6302,134.67801)" d="M 0 0 L 0 1.021 L 4.194 1.021 L 4.194 0 L 2.732 0 L 2.732 -4.585 L 4.194 -4.585 L 4.194 -5.615 L 0 -5.615 L 0 -4.585 L 1.462 -4.585 L 1.462 0 Z " fill="#404041"/>
<path transform="matrix(1,0,0,-1,202.1812,138.30802)" d="M 0 0 C 0 -.312 -.049 -.596 -.147 -.853 C -.246 -1.11 -.389 -1.331 -.579 -1.513 C -.769 -1.696 -1.004 -1.837 -1.285 -1.937 C -1.566 -2.037 -1.892 -2.087 -2.265 -2.087 C -2.539 -2.087 -2.803 -2.055 -3.057 -1.99 C -3.311 -1.926 -3.532 -1.845 -3.722 -1.747 L -3.722 -.538 C -3.637 -.609 -3.538 -.675 -3.425 -.737 C -3.311 -.797 -3.191 -.851 -3.062 -.896 C -2.933 -.942 -2.801 -.978 -2.666 -1.003 C -2.53 -1.028 -2.396 -1.041 -2.265 -1.041 C -2.153 -1.041 -2.037 -1.021 -1.917 -.98 C -1.797 -.94 -1.689 -.872 -1.594 -.777 C -1.5 -.682 -1.422 -.558 -1.361 -.403 C -1.3 -.25 -1.269 -.059 -1.269 .168 L -1.269 3.62 L -3.671 3.62 L -3.671 4.651 L 0 4.651 Z " fill="#404041"/>
<path transform="matrix(1,0,0,-1,206.1111,134.87581)" d="M 0 0 L -.874 -3.087 L .863 -3.087 Z M 1.508 -5.418 L 1.142 -4.107 L -1.173 -4.107 L -1.549 -5.418 L -2.788 -5.418 L -.823 1.219 L .924 1.219 L 2.889 -5.418 Z " fill="#404041"/>
<path transform="matrix(1,0,0,-1,25.7876,152.7812)" d="M 0 0 C 0 0 32 107.021 263.189 57.263 C 263.189 57.263 257.025 46.01 252.494 41.333 C 252.494 41.333 59 107.167 0 0 " fill="#ffffff" fill-rule="evenodd"/>
<path transform="matrix(1,0,0,-1,76.5419,69.89891)" d="M 0 0 L 1.219 -2.47 L 3.942 -2.866 L 1.971 -4.789 L 2.438 -7.501 L 0 -6.222 L -2.437 -7.501 L -1.97 -4.789 L -3.944 -2.866 L -1.218 -2.47 Z " fill="#ffffff"/>
<path transform="matrix(1,0,0,-1,82.8769,74.48961)" d="M 0 0 L 1.219 -2.471 L 3.942 -2.866 L 1.97 -4.786 L 2.435 -7.502 L 0 -6.218 L -2.438 -7.502 L -1.974 -4.786 L -3.945 -2.866 L -1.22 -2.471 Z " fill="#ffffff"/>
<path transform="matrix(1,0,0,-1,70.2422,74.48961)" d="M 0 0 L 1.219 -2.471 L 3.944 -2.866 L 1.971 -4.786 L 2.436 -7.502 L 0 -6.218 L -2.437 -7.502 L -1.971 -4.786 L -3.944 -2.866 L -1.218 -2.471 Z " fill="#ffffff"/>
</g>
</g>
</g>
</svg>
